# xmcd
# 
# Track frame offsets:
#     150
#     22266
#     43156
#     58749
#     86213
#     108546
#     121932
#     149123
#     171375
#     181176
#     202922
#     216926
#     247951
# 
# Disc length: 3597
# 
# Revision: 1
# Processed by: cddbd v1.5.2PL0 Copyright (c) Steve Scherf et al.
# Submitted via: fre:ac v1.0.17
# 
DISCID=c90e0b0d
DTITLE=Tatsuya Yoshida - Satoko Fujii - Erans
DYEAR=2004
DGENRE=Jazz
TTITLE0=Feirsttix 
TTITLE1=Erans
TTITLE2=Taco No Me
TTITLE3=Westerlies
TTITLE4=Snyguilp 
TTITLE5=Ika No Kuchi 
TTITLE6=Hizumi 
TTITLE7=Ayentanams 
TTITLE8=Iwashi No Uroko 
TTITLE9=Take Right 
TTITLE10=Shimesaba
TTITLE11=Agolan 
TTITLE12=Feirsttix [Vocal Version] 
EXTD=YEAR: 2004
EXTT0=
EXTT1=
EXTT2=
EXTT3=
EXTT4=
EXTT5=
EXTT6=
EXTT7=
EXTT8=
EXTT9=
EXTT10=
EXTT11=
EXTT12=
PLAYORDER=
